<svg xmlns="http://www.w3.org/2000/svg" xmlns:xlink="http://www.w3.org/1999/xlink" width="2000" zoomAndPan="magnify" viewBox="0 0 1500 1499.999933" height="2000" preserveAspectRatio="xMidYMid meet" version="1.0"><defs><g/><clipPath id="c49635ba5c"><path d="M 95 585 L 283 585 L 283 838 L 95 838 Z M 95 585 " clip-rule="nonzero"/></clipPath><clipPath id="6b97452473"><path d="M 218.785156 568.203125 L 300.429688 616.261719 L 160.007812 854.820312 L 78.363281 806.761719 Z M 218.785156 568.203125 " clip-rule="nonzero"/></clipPath><clipPath id="2114953ff7"><path d="M 259.609375 592.234375 C 270.433594 598.605469 278.285156 609.019531 281.4375 621.183594 C 284.585938 633.34375 282.773438 646.257812 276.402344 657.085938 L 184.097656 813.894531 C 177.726562 824.71875 167.3125 832.570312 155.152344 835.71875 C 142.988281 838.871094 130.074219 837.058594 119.246094 830.683594 C 108.421875 824.3125 100.570312 813.898438 97.417969 801.738281 C 94.269531 789.574219 96.082031 776.660156 102.453125 765.832031 L 194.757812 609.027344 C 201.128906 598.199219 211.542969 590.347656 223.703125 587.199219 C 235.867188 584.050781 248.78125 585.859375 259.609375 592.234375 Z M 259.609375 592.234375 " clip-rule="nonzero"/></clipPath><clipPath id="a70b2066f9"><path d="M 0 0 L 188 0 L 188 253 L 0 253 Z M 0 0 " clip-rule="nonzero"/></clipPath><clipPath id="84cf635f89"><path d="M 123.785156 -16.796875 L 205.429688 31.261719 L 65.007812 269.820312 L -16.636719 221.761719 Z M 123.785156 -16.796875 " clip-rule="nonzero"/></clipPath><clipPath id="7793603d63"><path d="M 164.609375 7.234375 C 175.433594 13.605469 183.285156 24.019531 186.4375 36.183594 C 189.585938 48.34375 187.773438 61.257812 181.402344 72.085938 L 89.097656 228.894531 C 82.726562 239.71875 72.3125 247.570312 60.152344 250.71875 C 47.988281 253.871094 35.074219 252.058594 24.246094 245.683594 C 13.421875 239.3125 5.570312 228.898438 2.417969 216.738281 C -0.730469 204.574219 1.082031 191.660156 7.453125 180.832031 L 99.757812 24.027344 C 106.128906 13.199219 116.542969 5.347656 128.703125 2.199219 C 140.867188 -0.949219 153.78125 0.859375 164.609375 7.234375 Z M 164.609375 7.234375 " clip-rule="nonzero"/></clipPath><clipPath id="d364efba60"><rect x="0" width="188" y="0" height="253"/></clipPath><clipPath id="9c39c6913c"><path d="M 0 585.453125 L 97.605469 585.453125 L 97.605469 683.058594 L 0 683.058594 Z M 0 585.453125 " clip-rule="nonzero"/></clipPath><clipPath id="bd02c421bd"><path d="M 48.800781 585.453125 C 21.847656 585.453125 0 607.304688 0 634.257812 C 0 661.210938 21.847656 683.058594 48.800781 683.058594 C 75.753906 683.058594 97.605469 661.210938 97.605469 634.257812 C 97.605469 607.304688 75.753906 585.453125 48.800781 585.453125 Z M 48.800781 585.453125 " clip-rule="nonzero"/></clipPath><clipPath id="3decedc64a"><path d="M 0 0.453125 L 97.605469 0.453125 L 97.605469 98.058594 L 0 98.058594 Z M 0 0.453125 " clip-rule="nonzero"/></clipPath><clipPath id="73566b7d8d"><path d="M 48.800781 0.453125 C 21.847656 0.453125 0 22.304688 0 49.257812 C 0 76.210938 21.847656 98.058594 48.800781 98.058594 C 75.753906 98.058594 97.605469 76.210938 97.605469 49.257812 C 97.605469 22.304688 75.753906 0.453125 48.800781 0.453125 Z M 48.800781 0.453125 " clip-rule="nonzero"/></clipPath><clipPath id="6bbf3e81d4"><rect x="0" width="98" y="0" height="99"/></clipPath><clipPath id="c187d0d15a"><path d="M 430 63 L 589 63 L 589 281.441406 L 430 281.441406 Z M 430 63 " clip-rule="nonzero"/></clipPath><clipPath id="8fdf2d89fd"><rect x="0" width="1045" y="0" height="282"/></clipPath></defs><g clip-path="url(#c49635ba5c)"><g clip-path="url(#6b97452473)"><g clip-path="url(#2114953ff7)"><g transform="matrix(1, 0, 0, 1, 95, 585)"><g clip-path="url(#d364efba60)"><g clip-path="url(#a70b2066f9)"><g clip-path="url(#84cf635f89)"><g clip-path="url(#7793603d63)"><path fill="#f39849" d="M 123.785156 -16.796875 L 205.429688 31.261719 L 65.007812 269.820312 L -16.636719 221.757812 Z M 123.785156 -16.796875 " fill-opacity="1" fill-rule="nonzero"/></g></g></g></g></g></g></g></g><g clip-path="url(#9c39c6913c)"><g clip-path="url(#bd02c421bd)"><g transform="matrix(1, 0, 0, 1, 0, 585)"><g clip-path="url(#6bbf3e81d4)"><g clip-path="url(#3decedc64a)"><g clip-path="url(#73566b7d8d)"><path fill="#f39849" d="M 0 0.453125 L 97.605469 0.453125 L 97.605469 98.058594 L 0 98.058594 Z M 0 0.453125 " fill-opacity="1" fill-rule="nonzero"/></g></g></g></g></g></g><g transform="matrix(1, 0, 0, 1, 353, 584)"><g clip-path="url(#8fdf2d89fd)"><g fill="#000000" fill-opacity="1"><g transform="translate(0.446233, 225.837002)"><g><path d="M 96.6875 4.609375 C 82.070312 4.609375 69.421875 2.675781 58.734375 -1.1875 C 48.046875 -5.050781 39.234375 -10.210938 32.296875 -16.671875 C 25.367188 -23.128906 20.238281 -30.351562 16.90625 -38.34375 C 13.570312 -46.332031 11.90625 -54.398438 11.90625 -62.546875 L 40 -62.546875 C 40 -55.035156 42.25 -48 46.75 -41.4375 C 51.25 -34.875 57.703125 -29.582031 66.109375 -25.5625 C 74.523438 -21.539062 84.660156 -19.53125 96.515625 -19.53125 C 114.929688 -19.53125 129.0625 -22.890625 138.90625 -29.609375 C 148.75 -36.328125 153.671875 -46.351562 153.671875 -59.6875 C 153.671875 -68.15625 151.207031 -74.984375 146.28125 -80.171875 C 141.363281 -85.359375 134.671875 -89.40625 126.203125 -92.3125 C 117.742188 -95.226562 108.113281 -97.476562 97.3125 -99.0625 C 90.113281 -100.226562 82.757812 -101.734375 75.25 -103.578125 C 67.738281 -105.429688 60.539062 -107.835938 53.65625 -110.796875 C 46.78125 -113.765625 40.613281 -117.445312 35.15625 -121.84375 C 29.707031 -126.238281 25.394531 -131.632812 22.21875 -138.03125 C 19.050781 -144.4375 17.46875 -151.976562 17.46875 -160.65625 C 17.46875 -168.695312 18.921875 -176.34375 21.828125 -183.59375 C 24.734375 -190.84375 29.304688 -197.242188 35.546875 -202.796875 C 41.796875 -208.359375 49.867188 -212.726562 59.765625 -215.90625 C 69.660156 -219.082031 81.648438 -220.671875 95.734375 -220.671875 C 112.660156 -220.671875 126.890625 -218.050781 138.421875 -212.8125 C 149.960938 -207.570312 158.695312 -200.347656 164.625 -191.140625 C 170.550781 -181.929688 173.515625 -171.296875 173.515625 -159.234375 L 145.265625 -159.234375 C 145.265625 -166.429688 143.359375 -172.78125 139.546875 -178.28125 C 135.734375 -183.78125 130.125 -188.09375 122.71875 -191.21875 C 115.3125 -194.34375 106.207031 -195.90625 95.40625 -195.90625 C 85.675781 -195.90625 77.582031 -194.898438 71.125 -192.890625 C 64.664062 -190.878906 59.582031 -188.203125 55.875 -184.859375 C 52.175781 -181.523438 49.53125 -177.742188 47.9375 -173.515625 C 46.351562 -169.285156 45.5625 -164.945312 45.5625 -160.5 C 45.5625 -152.988281 47.914062 -146.769531 52.625 -141.84375 C 57.332031 -136.925781 64.179688 -132.984375 73.171875 -130.015625 C 82.171875 -127.054688 93.128906 -124.675781 106.046875 -122.875 C 113.242188 -121.707031 120.46875 -120.171875 127.71875 -118.265625 C 134.96875 -116.359375 141.847656 -113.894531 148.359375 -110.875 C 154.867188 -107.863281 160.660156 -104.054688 165.734375 -99.453125 C 170.816406 -94.847656 174.8125 -89.289062 177.71875 -82.78125 C 180.632812 -76.28125 182.09375 -68.582031 182.09375 -59.6875 C 182.09375 -46.25 178.648438 -34.710938 171.765625 -25.078125 C 164.890625 -15.453125 155.070312 -8.097656 142.3125 -3.015625 C 129.5625 2.066406 114.351562 4.609375 96.6875 4.609375 Z M 96.6875 4.609375 "/></g></g></g><g fill="#000000" fill-opacity="1"><g transform="translate(174.756835, 225.837002)"><g><path d="M 53.5 0 L 26.1875 0 L 26.1875 -223.84375 L 53.5 -223.84375 Z M 53.5 0 "/></g></g></g><g fill="#000000" fill-opacity="1"><g transform="translate(235.579053, 225.837002)"><g><path d="M 90.8125 4.609375 C 79.695312 4.609375 69.398438 2.410156 59.921875 -1.984375 C 50.453125 -6.378906 42.171875 -12.488281 35.078125 -20.3125 C 27.992188 -28.144531 22.46875 -37.25 18.5 -47.625 C 14.53125 -58 12.546875 -69.113281 12.546875 -80.96875 C 12.546875 -92.820312 14.53125 -103.90625 18.5 -114.21875 C 22.46875 -124.539062 27.992188 -133.617188 35.078125 -141.453125 C 42.171875 -149.285156 50.453125 -155.394531 59.921875 -159.78125 C 69.398438 -164.175781 79.640625 -166.375 90.640625 -166.375 C 100.378906 -166.375 109.425781 -164.785156 117.78125 -161.609375 C 126.144531 -158.429688 133.53125 -153.90625 139.9375 -148.03125 C 146.34375 -142.15625 151.34375 -135.195312 154.9375 -127.15625 L 154.9375 -161.921875 L 181.140625 -161.921875 L 181.140625 0 L 154.9375 0 L 154.9375 -34.453125 C 151.34375 -26.515625 146.34375 -19.609375 139.9375 -13.734375 C 133.53125 -7.859375 126.144531 -3.332031 117.78125 -0.15625 C 109.425781 3.019531 100.4375 4.609375 90.8125 4.609375 Z M 96.84375 -20.953125 C 104.78125 -20.953125 112.210938 -22.457031 119.140625 -25.46875 C 126.078125 -28.488281 132.132812 -32.722656 137.3125 -38.171875 C 142.5 -43.628906 146.570312 -50.007812 149.53125 -57.3125 C 152.5 -64.613281 153.984375 -72.5 153.984375 -80.96875 C 153.984375 -89.320312 152.5 -97.125 149.53125 -104.375 C 146.570312 -111.625 142.472656 -117.972656 137.234375 -123.421875 C 132.003906 -128.878906 125.945312 -133.140625 119.0625 -136.203125 C 112.1875 -139.273438 104.832031 -140.8125 97 -140.8125 C 89.0625 -140.8125 81.648438 -139.351562 74.765625 -136.4375 C 67.890625 -133.53125 61.804688 -129.378906 56.515625 -123.984375 C 51.222656 -118.585938 47.09375 -112.265625 44.125 -105.015625 C 41.164062 -97.765625 39.6875 -89.75 39.6875 -80.96875 C 39.6875 -71.96875 41.191406 -63.789062 44.203125 -56.4375 C 47.222656 -49.082031 51.351562 -42.757812 56.59375 -37.46875 C 61.832031 -32.175781 67.914062 -28.097656 74.84375 -25.234375 C 81.78125 -22.378906 89.113281 -20.953125 96.84375 -20.953125 Z M 96.84375 -20.953125 "/></g></g></g><g clip-path="url(#c187d0d15a)"><g fill="#000000" fill-opacity="1"><g transform="translate(424.016181, 225.837002)"><g><path d="M 34.765625 55.25 L 8.09375 55.25 L 8.09375 32.234375 L 34.921875 32.234375 C 41.484375 32.234375 46.773438 31.066406 50.796875 28.734375 C 54.816406 26.398438 58.226562 22.828125 61.03125 18.015625 C 63.84375 13.203125 66.625 7.144531 69.375 -0.15625 L 71.125 -4.765625 L 6.828125 -161.921875 L 35.875 -161.921875 L 81.75 -47.46875 L 85.5625 -33.171875 L 89.6875 -47.3125 L 135.25 -161.765625 L 164.3125 -161.921875 L 100.484375 -4.4375 C 95.929688 6.988281 91.566406 16.535156 87.390625 24.203125 C 83.210938 31.878906 78.738281 37.992188 73.96875 42.546875 C 69.207031 47.097656 63.675781 50.351562 57.375 52.3125 C 51.082031 54.269531 43.546875 55.25 34.765625 55.25 Z M 34.765625 55.25 "/></g></g></g></g><g fill="#000000" fill-opacity="1"><g transform="translate(571.502259, 225.837002)"><g><path d="M 125.421875 4.28125 C 112.710938 4.28125 100.695312 2.40625 89.375 -1.34375 C 78.050781 -5.101562 67.734375 -10.421875 58.421875 -17.296875 C 49.109375 -24.179688 41.035156 -32.304688 34.203125 -41.671875 C 27.378906 -51.035156 22.113281 -61.328125 18.40625 -72.546875 C 14.707031 -83.765625 12.859375 -95.617188 12.859375 -108.109375 C 12.859375 -120.703125 14.707031 -132.632812 18.40625 -143.90625 C 22.113281 -155.175781 27.378906 -165.492188 34.203125 -174.859375 C 41.035156 -184.234375 49.109375 -192.332031 58.421875 -199.15625 C 67.734375 -205.976562 78.050781 -211.269531 89.375 -215.03125 C 100.695312 -218.789062 112.710938 -220.671875 125.421875 -220.671875 C 136.847656 -220.671875 148.007812 -219.054688 158.90625 -215.828125 C 169.8125 -212.597656 179.867188 -207.726562 189.078125 -201.21875 C 198.285156 -194.707031 206.171875 -186.554688 212.734375 -176.765625 C 219.296875 -166.984375 223.898438 -155.582031 226.546875 -142.5625 L 197.96875 -142.5625 C 194.6875 -154.195312 189.5 -163.878906 182.40625 -171.609375 C 175.3125 -179.335938 166.816406 -185.132812 156.921875 -189 C 147.023438 -192.863281 136.257812 -194.796875 124.625 -194.796875 C 112.875 -194.796875 101.914062 -192.675781 91.75 -188.4375 C 81.59375 -184.207031 72.726562 -178.203125 65.15625 -170.421875 C 57.59375 -162.640625 51.664062 -153.484375 47.375 -142.953125 C 43.09375 -132.421875 40.953125 -120.804688 40.953125 -108.109375 C 40.953125 -95.410156 43.09375 -83.769531 47.375 -73.1875 C 51.664062 -62.601562 57.59375 -53.472656 65.15625 -45.796875 C 72.726562 -38.128906 81.59375 -32.203125 91.75 -28.015625 C 101.914062 -23.835938 112.875 -21.75 124.625 -21.75 C 136.257812 -21.75 147 -23.679688 156.84375 -27.546875 C 166.6875 -31.410156 175.179688 -37.203125 182.328125 -44.921875 C 189.472656 -52.648438 194.632812 -62.28125 197.8125 -73.8125 L 226.546875 -73.8125 C 223.898438 -60.800781 219.320312 -49.398438 212.8125 -39.609375 C 206.300781 -29.816406 198.441406 -21.664062 189.234375 -15.15625 C 180.023438 -8.644531 169.96875 -3.773438 159.0625 -0.546875 C 148.164062 2.671875 136.953125 4.28125 125.421875 4.28125 Z M 125.421875 4.28125 "/></g></g></g><g fill="#000000" fill-opacity="1"><g transform="translate(792.160565, 225.837002)"><g><path d="M 90.8125 4.609375 C 79.695312 4.609375 69.398438 2.410156 59.921875 -1.984375 C 50.453125 -6.378906 42.171875 -12.488281 35.078125 -20.3125 C 27.992188 -28.144531 22.46875 -37.25 18.5 -47.625 C 14.53125 -58 12.546875 -69.113281 12.546875 -80.96875 C 12.546875 -92.820312 14.53125 -103.90625 18.5 -114.21875 C 22.46875 -124.539062 27.992188 -133.617188 35.078125 -141.453125 C 42.171875 -149.285156 50.453125 -155.394531 59.921875 -159.78125 C 69.398438 -164.175781 79.640625 -166.375 90.640625 -166.375 C 100.378906 -166.375 109.425781 -164.785156 117.78125 -161.609375 C 126.144531 -158.429688 133.53125 -153.90625 139.9375 -148.03125 C 146.34375 -142.15625 151.34375 -135.195312 154.9375 -127.15625 L 154.9375 -161.921875 L 181.140625 -161.921875 L 181.140625 0 L 154.9375 0 L 154.9375 -34.453125 C 151.34375 -26.515625 146.34375 -19.609375 139.9375 -13.734375 C 133.53125 -7.859375 126.144531 -3.332031 117.78125 -0.15625 C 109.425781 3.019531 100.4375 4.609375 90.8125 4.609375 Z M 96.84375 -20.953125 C 104.78125 -20.953125 112.210938 -22.457031 119.140625 -25.46875 C 126.078125 -28.488281 132.132812 -32.722656 137.3125 -38.171875 C 142.5 -43.628906 146.570312 -50.007812 149.53125 -57.3125 C 152.5 -64.613281 153.984375 -72.5 153.984375 -80.96875 C 153.984375 -89.320312 152.5 -97.125 149.53125 -104.375 C 146.570312 -111.625 142.472656 -117.972656 137.234375 -123.421875 C 132.003906 -128.878906 125.945312 -133.140625 119.0625 -136.203125 C 112.1875 -139.273438 104.832031 -140.8125 97 -140.8125 C 89.0625 -140.8125 81.648438 -139.351562 74.765625 -136.4375 C 67.890625 -133.53125 61.804688 -129.378906 56.515625 -123.984375 C 51.222656 -118.585938 47.09375 -112.265625 44.125 -105.015625 C 41.164062 -97.765625 39.6875 -89.75 39.6875 -80.96875 C 39.6875 -71.96875 41.191406 -63.789062 44.203125 -56.4375 C 47.222656 -49.082031 51.351562 -42.757812 56.59375 -37.46875 C 61.832031 -32.175781 67.914062 -28.097656 74.84375 -25.234375 C 81.78125 -22.378906 89.113281 -20.953125 96.84375 -20.953125 Z M 96.84375 -20.953125 "/></g></g></g><g fill="#000000" fill-opacity="1"><g transform="translate(980.597694, 225.837002)"><g><path d="M 53.5 0 L 26.1875 0 L 26.1875 -223.84375 L 53.5 -223.84375 Z M 53.5 0 "/></g></g></g></g></g></svg>